<?xml version="1.0" encoding="UTF-8"?>
<!DOCTYPE svg PUBLIC "-//W3C//DTD SVG 1.1//EN" "http://www.w3.org/Graphics/SVG/1.1/DTD/svg11.dtd">
<!-- Creator: CorelDRAW 2021 (64-Bit) -->
<svg xmlns="http://www.w3.org/2000/svg" xml:space="preserve" width="152px" height="34px" version="1.1" style="shape-rendering:geometricPrecision; text-rendering:geometricPrecision; image-rendering:optimizeQuality; fill-rule:evenodd; clip-rule:evenodd"
viewBox="294 441 152 34"
 xmlns:xlink="http://www.w3.org/1999/xlink"
 xmlns:xodm="http://www.corel.com/coreldraw/odm/2003">
 <defs>
  <style type="text/css">
   <![CDATA[
    .fil3 {fill:none}
    .fil2 {fill:darkorange}
    .fil0 {fill:white}
    .fil1 {fill:black;fill-rule:nonzero}
   ]]>
  </style>
 </defs>
 <g id="Capa_x0020_1">
  <metadata id="CorelCorpID_0Corel-Layer"/>
  <rect class="fil0" x="360.187" y="272.16" width="20.871" height="20.871"/>
  <path class="fil1" d="M362.053 225.591c0.366,0 0.672,0.116 0.919,0.348 0.247,0.233 0.37,0.532 0.37,0.898 0,0.353 -0.123,0.645 -0.37,0.877 -0.247,0.233 -0.553,0.349 -0.919,0.349l-6.868 0c-0.367,0 -0.673,-0.123 -0.92,-0.37 -0.246,-0.246 -0.37,-0.553 -0.37,-0.919l0 -12.215c0,-0.367 0.127,-0.673 0.381,-0.92 0.253,-0.246 0.577,-0.369 0.972,-0.369 0.338,0 0.637,0.123 0.898,0.369 0.26,0.247 0.391,0.553 0.391,0.92l0 11.391 -0.465 -0.359 5.981 0z"/>
  <path id="_1" class="fil1" d="M369.742 228.274c-1.197,0 -2.236,-0.25 -3.117,-0.75 -0.88,-0.5 -1.557,-1.18 -2.029,-2.039 -0.472,-0.86 -0.708,-1.832 -0.708,-2.917 0,-1.268 0.257,-2.349 0.772,-3.244 0.514,-0.894 1.187,-1.581 2.018,-2.06 0.831,-0.479 1.712,-0.719 2.642,-0.719 0.718,0 1.398,0.148 2.039,0.444 0.641,0.296 1.208,0.701 1.701,1.215 0.493,0.515 0.884,1.11 1.173,1.786 0.289,0.676 0.433,1.395 0.433,2.156 -0.014,0.338 -0.148,0.613 -0.401,0.824 -0.254,0.211 -0.549,0.317 -0.888,0.317l-8.073 0 -0.634 -2.114 7.756 0 -0.465 0.423 0 -0.57c-0.028,-0.409 -0.172,-0.775 -0.433,-1.099 -0.26,-0.324 -0.585,-0.581 -0.972,-0.772 -0.388,-0.19 -0.8,-0.285 -1.236,-0.285 -0.423,0 -0.818,0.056 -1.184,0.169 -0.366,0.113 -0.683,0.303 -0.951,0.571 -0.268,0.267 -0.479,0.626 -0.634,1.077 -0.155,0.451 -0.232,1.022 -0.232,1.712 0,0.761 0.158,1.406 0.475,1.934 0.317,0.528 0.726,0.93 1.226,1.205 0.5,0.274 1.032,0.412 1.595,0.412 0.522,0 0.937,-0.042 1.247,-0.127 0.31,-0.085 0.56,-0.187 0.751,-0.307 0.19,-0.119 0.362,-0.221 0.517,-0.306 0.254,-0.127 0.494,-0.19 0.719,-0.19 0.31,0 0.567,0.106 0.771,0.317 0.204,0.211 0.307,0.458 0.307,0.74 0,0.38 -0.197,0.725 -0.592,1.035 -0.366,0.31 -0.881,0.581 -1.543,0.814 -0.662,0.232 -1.345,0.348 -2.05,0.348z"/>
  <path id="_2" class="fil1" d="M375.868 216.968l5.008 0c0.338,0 0.62,0.113 0.846,0.338 0.225,0.225 0.338,0.507 0.338,0.845 0,0.325 -0.113,0.596 -0.338,0.814 -0.226,0.218 -0.508,0.328 -0.846,0.328l-5.008 0c-0.339,0 -0.62,-0.113 -0.846,-0.339 -0.225,-0.225 -0.338,-0.507 -0.338,-0.845 0,-0.324 0.113,-0.595 0.338,-0.813 0.226,-0.219 0.507,-0.328 0.846,-0.328zm2.261 -2.642c0.366,0 0.665,0.124 0.898,0.37 0.233,0.246 0.349,0.553 0.349,0.919l0 9.405c0,0.197 0.039,0.359 0.116,0.486 0.078,0.127 0.183,0.218 0.317,0.275 0.134,0.056 0.278,0.084 0.433,0.084 0.169,0 0.324,-0.031 0.465,-0.095 0.141,-0.063 0.303,-0.095 0.486,-0.095 0.198,0 0.377,0.092 0.539,0.275 0.162,0.183 0.243,0.437 0.243,0.76 0,0.395 -0.215,0.719 -0.644,0.973 -0.43,0.254 -0.891,0.38 -1.385,0.38 -0.295,0 -0.623,-0.024 -0.982,-0.074 -0.36,-0.049 -0.698,-0.169 -1.015,-0.359 -0.317,-0.191 -0.581,-0.483 -0.792,-0.877 -0.211,-0.395 -0.317,-0.937 -0.317,-1.627l0 -9.511c0,-0.366 0.123,-0.673 0.37,-0.919 0.246,-0.246 0.553,-0.37 0.919,-0.37z"/>
  <path id="_3" class="fil1" d="M384.508 228.063c-0.366,0 -0.669,-0.123 -0.909,-0.37 -0.239,-0.246 -0.359,-0.553 -0.359,-0.919l0 -8.728c0,-0.366 0.12,-0.673 0.359,-0.92 0.24,-0.246 0.543,-0.369 0.909,-0.369 0.367,0 0.669,0.123 0.909,0.369 0.24,0.247 0.359,0.554 0.359,0.92l0 1.986 -0.148 -1.415c0.155,-0.339 0.356,-0.638 0.603,-0.899 0.246,-0.261 0.524,-0.479 0.834,-0.655 0.31,-0.176 0.641,-0.306 0.993,-0.391 0.353,-0.084 0.705,-0.127 1.057,-0.127 0.423,0 0.779,0.12 1.068,0.359 0.288,0.24 0.433,0.522 0.433,0.846 0,0.465 -0.12,0.799 -0.359,1.004 -0.24,0.204 -0.501,0.306 -0.782,0.306 -0.268,0 -0.511,-0.049 -0.729,-0.148 -0.219,-0.099 -0.469,-0.148 -0.751,-0.148 -0.253,0 -0.511,0.06 -0.771,0.18 -0.261,0.12 -0.5,0.306 -0.719,0.56 -0.218,0.254 -0.394,0.567 -0.528,0.94 -0.134,0.374 -0.201,0.814 -0.201,1.321l0 5.009c0,0.366 -0.119,0.673 -0.359,0.919 -0.24,0.247 -0.542,0.37 -0.909,0.37z"/>
  <path id="_4" class="fil1" d="M400.271 216.545c0.366,0 0.669,0.12 0.908,0.359 0.24,0.24 0.36,0.55 0.36,0.931l0 8.939c0,0.366 -0.12,0.673 -0.36,0.919 -0.239,0.247 -0.542,0.37 -0.908,0.37 -0.366,0 -0.669,-0.123 -0.909,-0.37 -0.239,-0.246 -0.359,-0.553 -0.359,-0.919l0 -1.036 0.465 0.19c0,0.184 -0.099,0.406 -0.296,0.666 -0.198,0.261 -0.465,0.518 -0.803,0.772 -0.338,0.253 -0.736,0.468 -1.194,0.644 -0.458,0.176 -0.955,0.264 -1.49,0.264 -0.972,0 -1.853,-0.25 -2.642,-0.75 -0.789,-0.5 -1.413,-1.19 -1.87,-2.071 -0.458,-0.88 -0.687,-1.891 -0.687,-3.033 0,-1.155 0.229,-2.173 0.687,-3.053 0.457,-0.881 1.074,-1.571 1.849,-2.071 0.775,-0.501 1.634,-0.751 2.578,-0.751 0.606,0 1.163,0.092 1.67,0.275 0.507,0.183 0.947,0.416 1.32,0.697 0.374,0.282 0.663,0.567 0.867,0.857 0.205,0.288 0.307,0.531 0.307,0.729l-0.761 0.274 0 -1.542c0,-0.367 0.12,-0.673 0.359,-0.92 0.24,-0.246 0.543,-0.37 0.909,-0.37zm-4.269 9.405c0.62,0 1.162,-0.155 1.627,-0.465 0.465,-0.31 0.828,-0.733 1.088,-1.268 0.261,-0.535 0.391,-1.135 0.391,-1.797 0,-0.676 -0.13,-1.282 -0.391,-1.817 -0.26,-0.535 -0.623,-0.958 -1.088,-1.268 -0.465,-0.31 -1.007,-0.465 -1.627,-0.465 -0.606,0 -1.142,0.155 -1.606,0.465 -0.465,0.31 -0.828,0.733 -1.089,1.268 -0.26,0.535 -0.391,1.141 -0.391,1.817 0,0.662 0.131,1.262 0.391,1.797 0.261,0.535 0.624,0.958 1.089,1.268 0.464,0.31 1,0.465 1.606,0.465z"/>
  <path class="fil2" d="M380.276 291.072c0,0.66 -0.54,1.2 -1.2,1.2 -2.874,0 -5.747,0 -8.621,0 -5.424,0 -9.822,-4.397 -9.822,-9.822 0,-5.424 4.398,-9.821 9.822,-9.821 5.424,0 9.821,4.397 9.821,9.821 0,2.87 0,5.749 0,8.622zm-12.874 -9.233l0.01 0 6.042 0 0.011 0c0.225,-0.006 0.476,-0.197 0.404,-0.406l-0.562 -1.634c-0.073,-0.211 -0.188,-0.405 -0.415,-0.405l-4.918 0c-0.227,0 -0.342,0.194 -0.414,0.405l-0.563 1.634c-0.071,0.208 0.179,0.4 0.405,0.406zm7.813 0.001c0.172,0.008 0.31,0.152 0.31,0.326 0,1.31 -0.015,2.616 -0.015,3.924 0,0.18 -0.147,0.327 -0.327,0.327l-1.233 0c-0.18,0 -0.327,-0.147 -0.327,-0.327l0 -1.207 -6.448 0 0 1.207c0,0.18 -0.147,0.327 -0.327,0.327l-1.232 0c-0.18,0 -0.327,-0.147 -0.327,-0.327 0,-1.308 0,-2.616 0,-3.924l0 -0.008 0 -0.008 0 0 0 -0.008 0.001 -0.001 0 -0.007 0 -0.001c0.025,-0.148 0.09,-0.22 0.224,-0.277l0.004 -0.002 0.003 -0.001 0.005 -0.001 0.003 -0.001 0.005 -0.001 0.002 -0.001 0.006 -0.001 0.002 -0.001 0.006 -0.001 0.001 0 0.007 -0.001 0.001 -0.001 0.007 -0.001 0.001 0 0.007 -0.001 0.001 0 0.007 -0.001 0.001 0 0.008 0 0 -0.001 0.008 0 -1.024 0c-0.166,0 -0.302,-0.136 -0.302,-0.303l0 -0.576c0,-0.166 0.136,-0.302 0.302,-0.302l1.094 0c0.343,0 0.302,0.358 0.302,0.59l0.726 -2.301c0.094,-0.299 0.373,-0.576 0.669,-0.576l6.134 0c0.296,0 0.576,0.276 0.67,0.576l0.69 2.186c0,-0.212 0.005,-0.475 0.302,-0.475l1.093 0c0.167,0 0.302,0.136 0.302,0.302l0 0.576c0,0.167 -0.135,0.303 -0.302,0.303l-1.04 0zm-2.163 0.791l0.571 0 0.576 0c0.257,0 0.468,0.21 0.468,0.468l0 0c0,0.258 -0.211,0.469 -0.468,0.469l-0.576 0 -0.571 0c-0.258,0 -0.468,-0.211 -0.468,-0.469l0 0c0,-0.258 0.21,-0.468 0.468,-0.468zm-5.235 0c0.258,0 0.468,0.21 0.468,0.468l0 0c0,0.258 -0.21,0.469 -0.468,0.469l-1.147 0c-0.257,0 -0.468,-0.211 -0.468,-0.469l0 0c0,-0.258 0.211,-0.468 0.468,-0.468l1.147 0zm2.638 7.034c4.026,0 7.268,-3.367 7.211,-7.379 -0.039,-3.903 -3.341,-7.05 -7.211,-7.05 -3.984,0 -7.214,3.23 -7.214,7.214 0,3.985 3.23,7.215 7.214,7.215z"/>
  <path class="fil1" d="M308.706 449.012c0.432,0 0.789,0.141 1.072,0.423 0.283,0.283 0.424,0.649 0.424,1.098l0 10.55c0,0.432 -0.141,0.794 -0.424,1.085 -0.283,0.291 -0.64,0.436 -1.072,0.436 -0.432,0 -0.79,-0.145 -1.073,-0.436 -0.282,-0.291 -0.424,-0.653 -0.424,-1.085l0 -1.222 0.549 0.224c0,0.216 -0.117,0.478 -0.349,0.786 -0.233,0.307 -0.549,0.611 -0.948,0.911 -0.399,0.299 -0.868,0.552 -1.409,0.76 -0.54,0.208 -1.126,0.312 -1.759,0.312 -1.147,0 -2.186,-0.295 -3.117,-0.886 -0.931,-0.59 -1.667,-1.405 -2.207,-2.444 -0.541,-1.039 -0.811,-2.232 -0.811,-3.579 0,-1.363 0.27,-2.565 0.811,-3.604 0.54,-1.039 1.267,-1.854 2.182,-2.444 0.914,-0.591 1.929,-0.885 3.043,-0.885 0.715,0 1.372,0.107 1.97,0.324 0.599,0.216 1.119,0.49 1.559,0.823 0.44,0.332 0.781,0.669 1.022,1.01 0.242,0.341 0.362,0.628 0.362,0.861l-0.898 0.324 0 -1.821c0,-0.432 0.142,-0.794 0.424,-1.085 0.283,-0.291 0.641,-0.436 1.073,-0.436zm-5.038 11.098c0.731,0 1.371,-0.183 1.92,-0.549 0.549,-0.365 0.977,-0.864 1.285,-1.496 0.307,-0.631 0.461,-1.339 0.461,-2.12 0,-0.798 -0.154,-1.513 -0.461,-2.145 -0.308,-0.632 -0.736,-1.131 -1.285,-1.496 -0.549,-0.366 -1.189,-0.549 -1.92,-0.549 -0.715,0 -1.347,0.183 -1.896,0.549 -0.549,0.365 -0.977,0.864 -1.284,1.496 -0.308,0.632 -0.462,1.347 -0.462,2.145 0,0.781 0.154,1.489 0.462,2.12 0.307,0.632 0.735,1.131 1.284,1.496 0.549,0.366 1.181,0.549 1.896,0.549zm11.669 0.973c0,0.432 -0.146,0.794 -0.437,1.085 -0.291,0.291 -0.653,0.436 -1.085,0.436 -0.416,0 -0.765,-0.145 -1.048,-0.436 -0.282,-0.291 -0.423,-0.653 -0.423,-1.085l0 -15.414c0,-0.432 0.145,-0.794 0.436,-1.084 0.291,-0.292 0.652,-0.437 1.085,-0.437 0.432,0 0.785,0.145 1.06,0.437 0.274,0.29 0.412,0.652 0.412,1.084l0 15.414zm12.815 -11.822c0.433,0 0.79,0.141 1.072,0.424 0.284,0.282 0.425,0.648 0.425,1.097l0 15.289c0,0.433 -0.141,0.794 -0.425,1.085 -0.282,0.291 -0.639,0.437 -1.072,0.437 -0.432,0 -0.79,-0.146 -1.072,-0.437 -0.283,-0.291 -0.424,-0.652 -0.424,-1.085l0 -6.21 0.548 0.224c0,0.216 -0.116,0.478 -0.349,0.786 -0.233,0.307 -0.548,0.611 -0.948,0.911 -0.399,0.299 -0.868,0.552 -1.409,0.76 -0.54,0.208 -1.126,0.312 -1.758,0.312 -1.147,0 -2.187,-0.295 -3.118,-0.886 -0.931,-0.59 -1.667,-1.405 -2.207,-2.444 -0.541,-1.039 -0.81,-2.232 -0.81,-3.579 0,-1.363 0.269,-2.565 0.81,-3.604 0.54,-1.039 1.268,-1.854 2.183,-2.444 0.914,-0.591 1.928,-0.885 3.042,-0.885 0.715,0 1.372,0.107 1.971,0.324 0.598,0.216 1.118,0.49 1.558,0.823 0.441,0.332 0.782,0.669 1.023,1.01 0.241,0.341 0.362,0.628 0.362,0.861l-0.898 0.324 0 -1.572c0,-0.432 0.141,-0.794 0.424,-1.085 0.282,-0.291 0.64,-0.436 1.072,-0.436zm-5.038 10.849c0.732,0 1.372,-0.183 1.92,-0.549 0.549,-0.365 0.977,-0.864 1.285,-1.496 0.308,-0.631 0.461,-1.339 0.461,-2.12 0,-0.798 -0.153,-1.513 -0.461,-2.145 -0.308,-0.632 -0.736,-1.131 -1.285,-1.496 -0.548,-0.366 -1.188,-0.549 -1.92,-0.549 -0.715,0 -1.347,0.183 -1.896,0.549 -0.548,0.365 -0.976,0.864 -1.284,1.496 -0.308,0.632 -0.461,1.347 -0.461,2.145 0,0.781 0.153,1.489 0.461,2.12 0.308,0.632 0.736,1.131 1.284,1.496 0.549,0.366 1.181,0.549 1.896,0.549zm18.328 -10.849c0.432,0 0.79,0.145 1.072,0.436 0.283,0.291 0.424,0.653 0.424,1.085l0 6.335c0,1.763 -0.491,3.16 -1.471,4.19 -0.981,1.032 -2.395,1.547 -4.24,1.547 -1.846,0 -3.255,-0.515 -4.228,-1.547 -0.972,-1.03 -1.458,-2.427 -1.458,-4.19l0 -6.335c0,-0.432 0.141,-0.794 0.423,-1.085 0.283,-0.291 0.64,-0.436 1.072,-0.436 0.433,0 0.79,0.145 1.073,0.436 0.283,0.291 0.424,0.653 0.424,1.085l0 6.335c0,1.015 0.225,1.767 0.674,2.258 0.449,0.49 1.122,0.735 2.02,0.735 0.914,0 1.596,-0.245 2.045,-0.735 0.449,-0.491 0.673,-1.243 0.673,-2.258l0 -6.335c0,-0.432 0.142,-0.794 0.425,-1.085 0.282,-0.291 0.64,-0.436 1.072,-0.436zm6.207 11.822c0,0.432 -0.142,0.794 -0.425,1.085 -0.282,0.291 -0.64,0.436 -1.072,0.436 -0.432,0 -0.79,-0.145 -1.072,-0.436 -0.283,-0.291 -0.425,-0.653 -0.425,-1.085l0 -10.301c0,-0.432 0.142,-0.794 0.425,-1.085 0.282,-0.291 0.64,-0.436 1.072,-0.436 0.432,0 0.79,0.145 1.072,0.436 0.283,0.291 0.425,0.653 0.425,1.085l0 10.301zm-1.522 -13.443c-0.565,0 -0.964,-0.092 -1.197,-0.275 -0.233,-0.183 -0.349,-0.507 -0.349,-0.972l0 -0.474c0,-0.482 0.129,-0.811 0.386,-0.985 0.258,-0.175 0.653,-0.262 1.185,-0.262 0.582,0 0.989,0.091 1.222,0.274 0.233,0.183 0.349,0.507 0.349,0.973l0 0.474c0,0.482 -0.124,0.81 -0.374,0.985 -0.249,0.174 -0.656,0.262 -1.222,0.262z"/>
  <path class="fil1" d="M380.734 449.012c0.947,0 1.775,0.099 2.481,0.299 0.707,0.2 1.256,0.478 1.646,0.835 0.391,0.358 0.587,0.786 0.587,1.285 0,0.333 -0.1,0.644 -0.3,0.935 -0.199,0.291 -0.49,0.437 -0.873,0.437 -0.266,0 -0.486,-0.038 -0.661,-0.113 -0.175,-0.075 -0.328,-0.17 -0.461,-0.287 -0.133,-0.116 -0.291,-0.224 -0.474,-0.324 -0.166,-0.099 -0.42,-0.178 -0.761,-0.236 -0.341,-0.059 -0.594,-0.088 -0.761,-0.088 -0.847,0 -1.567,0.183 -2.157,0.549 -0.59,0.365 -1.043,0.86 -1.359,1.484 -0.316,0.623 -0.474,1.342 -0.474,2.157 0,0.798 0.162,1.509 0.486,2.133 0.325,0.623 0.774,1.118 1.347,1.483 0.574,0.366 1.235,0.549 1.983,0.549 0.416,0 0.773,-0.025 1.072,-0.075 0.3,-0.049 0.549,-0.124 0.749,-0.224 0.233,-0.133 0.44,-0.274 0.623,-0.424 0.183,-0.15 0.457,-0.224 0.823,-0.224 0.433,0 0.765,0.137 0.998,0.411 0.233,0.274 0.349,0.611 0.349,1.01 0,0.416 -0.233,0.794 -0.698,1.135 -0.466,0.341 -1.077,0.615 -1.833,0.823 -0.757,0.208 -1.576,0.312 -2.457,0.312 -1.314,0 -2.453,-0.304 -3.417,-0.911 -0.964,-0.606 -1.708,-1.434 -2.232,-2.481 -0.524,-1.048 -0.786,-2.22 -0.786,-3.517 0,-1.363 0.279,-2.565 0.836,-3.604 0.557,-1.039 1.33,-1.854 2.319,-2.444 0.99,-0.59 2.124,-0.885 3.405,-0.885z"/>
  <path id="_1_0" class="fil1" d="M397.34 449.012c0.432,0 0.79,0.141 1.072,0.424 0.283,0.282 0.425,0.648 0.425,1.097l0 10.55c0,0.432 -0.142,0.794 -0.425,1.085 -0.282,0.291 -0.64,0.436 -1.072,0.436 -0.432,0 -0.79,-0.145 -1.072,-0.436 -0.283,-0.291 -0.424,-0.653 -0.424,-1.085l0 -1.222 0.548 0.224c0,0.216 -0.116,0.478 -0.349,0.786 -0.233,0.308 -0.549,0.611 -0.948,0.91 -0.399,0.3 -0.868,0.553 -1.409,0.761 -0.54,0.208 -1.126,0.312 -1.758,0.312 -1.148,0 -2.187,-0.295 -3.118,-0.886 -0.931,-0.59 -1.667,-1.405 -2.207,-2.444 -0.541,-1.039 -0.81,-2.232 -0.81,-3.579 0,-1.363 0.269,-2.565 0.81,-3.604 0.54,-1.039 1.268,-1.854 2.182,-2.444 0.915,-0.59 1.929,-0.885 3.043,-0.885 0.715,0 1.372,0.108 1.97,0.324 0.599,0.216 1.119,0.491 1.559,0.823 0.441,0.332 0.782,0.669 1.023,1.01 0.241,0.341 0.362,0.628 0.362,0.861l-0.898 0.324 0 -1.821c0,-0.432 0.141,-0.794 0.424,-1.085 0.282,-0.291 0.64,-0.436 1.072,-0.436zm-5.038 11.098c0.731,0 1.372,-0.183 1.92,-0.549 0.549,-0.365 0.977,-0.864 1.285,-1.496 0.307,-0.632 0.461,-1.338 0.461,-2.12 0,-0.798 -0.154,-1.513 -0.461,-2.145 -0.308,-0.632 -0.736,-1.131 -1.285,-1.496 -0.548,-0.366 -1.189,-0.549 -1.92,-0.549 -0.715,0 -1.347,0.183 -1.895,0.549 -0.549,0.365 -0.977,0.864 -1.285,1.496 -0.308,0.632 -0.461,1.347 -0.461,2.145 0,0.782 0.153,1.488 0.461,2.12 0.308,0.632 0.736,1.131 1.285,1.496 0.548,0.366 1.18,0.549 1.895,0.549z"/>
  <path id="_2_1" class="fil1" d="M402.225 462.604c-0.433,0 -0.79,-0.145 -1.073,-0.436 -0.283,-0.291 -0.424,-0.653 -0.424,-1.085l0 -10.301c0,-0.432 0.141,-0.793 0.424,-1.084 0.283,-0.291 0.64,-0.437 1.073,-0.437 0.432,0 0.789,0.146 1.072,0.437 0.282,0.291 0.424,0.652 0.424,1.084l0 2.345 -0.175 -1.671c0.183,-0.399 0.42,-0.753 0.711,-1.06 0.291,-0.308 0.619,-0.565 0.985,-0.773 0.366,-0.208 0.757,-0.362 1.172,-0.462 0.416,-0.099 0.832,-0.149 1.247,-0.149 0.499,0 0.919,0.141 1.26,0.424 0.341,0.282 0.511,0.615 0.511,0.997 0,0.549 -0.141,0.944 -0.424,1.185 -0.282,0.241 -0.59,0.362 -0.923,0.362 -0.316,0 -0.602,-0.058 -0.86,-0.175 -0.258,-0.116 -0.553,-0.175 -0.885,-0.175 -0.3,0 -0.603,0.071 -0.911,0.213 -0.307,0.141 -0.59,0.361 -0.848,0.66 -0.257,0.3 -0.465,0.67 -0.623,1.11 -0.158,0.441 -0.237,0.961 -0.237,1.559l0 5.911c0,0.432 -0.142,0.794 -0.424,1.085 -0.283,0.291 -0.64,0.436 -1.072,0.436z"/>
  <path id="_3_2" class="fil1" d="M411.698 462.604c-0.432,0 -0.79,-0.145 -1.073,-0.436 -0.282,-0.291 -0.424,-0.653 -0.424,-1.085l0 -10.301c0,-0.432 0.142,-0.793 0.424,-1.084 0.283,-0.291 0.641,-0.437 1.073,-0.437 0.432,0 0.789,0.146 1.072,0.437 0.283,0.291 0.424,0.652 0.424,1.084l0 2.345 -0.174 -1.671c0.183,-0.399 0.419,-0.753 0.711,-1.06 0.291,-0.308 0.619,-0.565 0.984,-0.773 0.366,-0.208 0.757,-0.362 1.173,-0.462 0.416,-0.099 0.831,-0.149 1.247,-0.149 0.499,0 0.919,0.141 1.259,0.424 0.341,0.282 0.511,0.615 0.511,0.997 0,0.549 -0.141,0.944 -0.423,1.185 -0.283,0.241 -0.591,0.362 -0.923,0.362 -0.316,0 -0.603,-0.058 -0.861,-0.175 -0.257,-0.116 -0.552,-0.175 -0.885,-0.175 -0.299,0 -0.603,0.071 -0.91,0.213 -0.308,0.141 -0.591,0.361 -0.848,0.66 -0.258,0.3 -0.466,0.67 -0.624,1.11 -0.158,0.441 -0.237,0.961 -0.237,1.559l0 5.911c0,0.432 -0.141,0.794 -0.424,1.085 -0.283,0.291 -0.64,0.436 -1.072,0.436z"/>
  <path id="_4_3" class="fil1" d="M432.07 455.945c0,1.363 -0.303,2.565 -0.91,3.604 -0.607,1.039 -1.422,1.85 -2.444,2.432 -1.023,0.582 -2.166,0.873 -3.43,0.873 -1.263,0 -2.406,-0.291 -3.429,-0.873 -1.022,-0.582 -1.837,-1.393 -2.444,-2.432 -0.607,-1.039 -0.91,-2.241 -0.91,-3.604 0,-1.363 0.303,-2.565 0.91,-3.604 0.607,-1.039 1.422,-1.854 2.444,-2.444 1.023,-0.59 2.166,-0.885 3.429,-0.885 1.264,0 2.407,0.295 3.43,0.885 1.022,0.59 1.837,1.405 2.444,2.444 0.607,1.039 0.91,2.241 0.91,3.604zm-2.993 0c0,-0.848 -0.17,-1.583 -0.511,-2.207 -0.341,-0.624 -0.798,-1.11 -1.372,-1.459 -0.573,-0.349 -1.209,-0.524 -1.908,-0.524 -0.698,0 -1.334,0.175 -1.908,0.524 -0.573,0.349 -1.031,0.835 -1.371,1.459 -0.341,0.624 -0.512,1.359 -0.512,2.207 0,0.832 0.171,1.559 0.512,2.182 0.34,0.624 0.798,1.11 1.371,1.459 0.574,0.35 1.21,0.524 1.908,0.524 0.699,0 1.335,-0.174 1.908,-0.524 0.574,-0.349 1.031,-0.835 1.372,-1.459 0.341,-0.623 0.511,-1.35 0.511,-2.182z"/>
  <path id="_5" class="fil1" d="M432.565 460.534c-0.166,-0.233 -0.241,-0.532 -0.224,-0.898 0.016,-0.366 0.232,-0.681 0.648,-0.947 0.266,-0.167 0.549,-0.237 0.848,-0.212 0.299,0.025 0.59,0.178 0.873,0.461 0.482,0.482 0.989,0.856 1.521,1.122 0.532,0.266 1.197,0.399 1.995,0.399 0.25,-0.016 0.524,-0.054 0.824,-0.112 0.299,-0.058 0.561,-0.191 0.785,-0.399 0.224,-0.208 0.337,-0.528 0.337,-0.96 0,-0.366 -0.125,-0.657 -0.374,-0.873 -0.25,-0.216 -0.578,-0.399 -0.985,-0.549 -0.408,-0.149 -0.861,-0.291 -1.36,-0.424 -0.515,-0.149 -1.043,-0.315 -1.584,-0.498 -0.54,-0.183 -1.034,-0.42 -1.483,-0.711 -0.449,-0.291 -0.815,-0.678 -1.098,-1.16 -0.283,-0.482 -0.424,-1.089 -0.424,-1.821 0,-0.831 0.233,-1.538 0.698,-2.12 0.466,-0.582 1.069,-1.03 1.809,-1.346 0.74,-0.316 1.517,-0.474 2.332,-0.474 0.515,0 1.056,0.062 1.621,0.187 0.565,0.124 1.105,0.324 1.621,0.598 0.516,0.275 0.948,0.636 1.297,1.085 0.183,0.25 0.291,0.549 0.324,0.898 0.033,0.349 -0.125,0.665 -0.474,0.948 -0.249,0.199 -0.54,0.287 -0.873,0.262 -0.332,-0.025 -0.607,-0.138 -0.823,-0.337 -0.282,-0.366 -0.661,-0.657 -1.134,-0.873 -0.474,-0.216 -1.019,-0.324 -1.634,-0.324 -0.249,0 -0.52,0.029 -0.811,0.087 -0.291,0.058 -0.544,0.183 -0.76,0.374 -0.217,0.192 -0.325,0.495 -0.325,0.91 0,0.383 0.125,0.686 0.374,0.911 0.25,0.224 0.587,0.407 1.011,0.549 0.423,0.141 0.877,0.278 1.359,0.411 0.499,0.133 1.006,0.291 1.521,0.474 0.516,0.183 0.99,0.424 1.422,0.723 0.432,0.3 0.781,0.686 1.047,1.16 0.266,0.474 0.399,1.077 0.399,1.808 0,0.848 -0.249,1.572 -0.748,2.17 -0.498,0.598 -1.122,1.052 -1.87,1.359 -0.748,0.308 -1.513,0.462 -2.295,0.462 -0.981,0 -1.962,-0.171 -2.943,-0.512 -0.981,-0.34 -1.796,-0.943 -2.444,-1.808z"/>
  <path class="fil1" d="M415.132 471.849c-0.271,0 -0.479,-0.072 -0.624,-0.217 -0.145,-0.145 -0.217,-0.353 -0.217,-0.624l0 -0.238c0,-0.271 0.072,-0.479 0.217,-0.624 0.145,-0.144 0.353,-0.217 0.624,-0.217l0.182 0c0.271,0 0.479,0.073 0.623,0.217 0.145,0.145 0.218,0.353 0.218,0.624l0 0.238c0,0.271 -0.073,0.479 -0.218,0.624 -0.144,0.145 -0.352,0.217 -0.623,0.217l-0.182 0z"/>
  <path id="_1_4" class="fil1" d="M420.454 464.226c0.533,0 0.998,0.056 1.395,0.168 0.397,0.112 0.705,0.269 0.924,0.47 0.22,0.2 0.33,0.441 0.33,0.721 0,0.187 -0.056,0.362 -0.169,0.526 -0.111,0.163 -0.275,0.245 -0.49,0.245 -0.149,0 -0.273,-0.021 -0.371,-0.063 -0.098,-0.042 -0.185,-0.096 -0.26,-0.161 -0.074,-0.066 -0.163,-0.126 -0.266,-0.182 -0.093,-0.056 -0.236,-0.101 -0.427,-0.133 -0.192,-0.033 -0.334,-0.05 -0.428,-0.05 -0.476,0 -0.88,0.103 -1.212,0.309 -0.331,0.205 -0.586,0.483 -0.763,0.834 -0.178,0.35 -0.267,0.754 -0.267,1.212 0,0.448 0.091,0.847 0.274,1.198 0.182,0.35 0.434,0.628 0.756,0.834 0.323,0.205 0.694,0.308 1.115,0.308 0.233,0 0.434,-0.014 0.602,-0.042 0.168,-0.028 0.308,-0.07 0.42,-0.127 0.131,-0.074 0.248,-0.153 0.351,-0.238 0.102,-0.084 0.257,-0.126 0.462,-0.126 0.243,0 0.43,0.077 0.561,0.231 0.131,0.155 0.196,0.344 0.196,0.568 0,0.234 -0.131,0.446 -0.392,0.638 -0.262,0.191 -0.606,0.345 -1.03,0.462 -0.426,0.117 -0.886,0.175 -1.381,0.175 -0.738,0 -1.378,-0.17 -1.92,-0.511 -0.541,-0.341 -0.959,-0.806 -1.254,-1.395 -0.294,-0.588 -0.441,-1.247 -0.441,-1.975 0,-0.766 0.156,-1.441 0.469,-2.025 0.313,-0.584 0.748,-1.042 1.303,-1.373 0.556,-0.332 1.194,-0.498 1.913,-0.498z"/>
  <path id="_2_5" class="fil1" d="M430.92 468.122c0,0.766 -0.171,1.44 -0.512,2.024 -0.34,0.584 -0.798,1.04 -1.373,1.367 -0.574,0.327 -1.217,0.49 -1.926,0.49 -0.711,0 -1.353,-0.163 -1.927,-0.49 -0.575,-0.327 -1.033,-0.783 -1.374,-1.367 -0.341,-0.584 -0.511,-1.258 -0.511,-2.024 0,-0.766 0.17,-1.441 0.511,-2.025 0.341,-0.584 0.799,-1.042 1.374,-1.373 0.574,-0.332 1.216,-0.498 1.927,-0.498 0.709,0 1.352,0.166 1.926,0.498 0.575,0.331 1.033,0.789 1.373,1.373 0.341,0.584 0.512,1.259 0.512,2.025zm-1.682 0c0,-0.477 -0.095,-0.89 -0.287,-1.241 -0.191,-0.35 -0.448,-0.623 -0.771,-0.819 -0.322,-0.197 -0.679,-0.295 -1.071,-0.295 -0.393,0 -0.75,0.098 -1.073,0.295 -0.322,0.196 -0.579,0.469 -0.77,0.819 -0.192,0.351 -0.288,0.764 -0.288,1.241 0,0.467 0.096,0.875 0.288,1.226 0.191,0.35 0.448,0.623 0.77,0.82 0.323,0.196 0.68,0.294 1.073,0.294 0.392,0 0.749,-0.098 1.071,-0.294 0.323,-0.197 0.58,-0.47 0.771,-0.82 0.192,-0.351 0.287,-0.759 0.287,-1.226z"/>
  <path id="_3_6" class="fil1" d="M435.57 464.226c0.747,0 1.298,0.18 1.653,0.539 0.356,0.36 0.589,0.825 0.701,1.395l-0.238 -0.126 0.112 -0.225c0.112,-0.214 0.285,-0.446 0.518,-0.693 0.234,-0.248 0.517,-0.458 0.848,-0.631 0.332,-0.173 0.703,-0.259 1.114,-0.259 0.673,0 1.184,0.145 1.535,0.434 0.35,0.29 0.591,0.675 0.721,1.157 0.131,0.481 0.196,1.016 0.196,1.604l0 3.587c0,0.243 -0.079,0.446 -0.238,0.61 -0.158,0.163 -0.359,0.245 -0.602,0.245 -0.243,0 -0.444,-0.082 -0.603,-0.245 -0.159,-0.164 -0.238,-0.367 -0.238,-0.61l0 -3.587c0,-0.308 -0.037,-0.586 -0.112,-0.834 -0.075,-0.247 -0.21,-0.446 -0.407,-0.595 -0.196,-0.15 -0.476,-0.225 -0.84,-0.225 -0.355,0 -0.659,0.075 -0.911,0.225 -0.253,0.149 -0.441,0.348 -0.568,0.595 -0.126,0.248 -0.189,0.526 -0.189,0.834l0 3.587c0,0.243 -0.079,0.446 -0.238,0.61 -0.159,0.163 -0.36,0.245 -0.603,0.245 -0.243,0 -0.443,-0.082 -0.602,-0.245 -0.159,-0.164 -0.239,-0.367 -0.239,-0.61l0 -3.587c0,-0.308 -0.037,-0.586 -0.111,-0.834 -0.075,-0.247 -0.211,-0.446 -0.407,-0.595 -0.196,-0.15 -0.476,-0.225 -0.841,-0.225 -0.355,0 -0.658,0.075 -0.911,0.225 -0.252,0.149 -0.441,0.348 -0.567,0.595 -0.126,0.248 -0.189,0.526 -0.189,0.834l0 3.587c0,0.243 -0.08,0.446 -0.238,0.61 -0.159,0.163 -0.36,0.245 -0.603,0.245 -0.243,0 -0.444,-0.082 -0.603,-0.245 -0.158,-0.164 -0.238,-0.367 -0.238,-0.61l0 -5.787c0,-0.243 0.08,-0.446 0.238,-0.61 0.159,-0.163 0.36,-0.245 0.603,-0.245 0.243,0 0.444,0.082 0.603,0.245 0.158,0.164 0.238,0.367 0.238,0.61l0 0.602 -0.21 -0.042c0.084,-0.158 0.2,-0.329 0.35,-0.511 0.149,-0.182 0.331,-0.353 0.547,-0.512 0.214,-0.158 0.453,-0.287 0.714,-0.385 0.262,-0.098 0.547,-0.147 0.855,-0.147z"/>
  <path class="fil2" d="M372.43 465.66c0,0.779 -0.637,1.416 -1.416,1.416 -3.392,0 -6.784,0 -10.175,0 -6.402,0 -11.591,-5.19 -11.591,-11.592 0,-6.401 5.189,-11.59 11.591,-11.59 6.401,0 11.591,5.189 11.591,11.59 0,3.388 0,6.785 0,10.176zm-15.194 -10.896l0.013 0 7.13 0 0.012 0c0.266,-0.007 0.562,-0.233 0.477,-0.479l-0.663 -1.929c-0.086,-0.25 -0.221,-0.479 -0.49,-0.479l-5.803 0c-0.269,0 -0.404,0.23 -0.49,0.479l-0.663 1.929c-0.085,0.245 0.211,0.472 0.477,0.479zm9.221 0c0.203,0.011 0.366,0.18 0.366,0.386 0,1.546 -0.018,3.087 -0.018,4.631 0,0.212 -0.174,0.385 -0.386,0.385l-1.455 0c-0.212,0 -0.386,-0.173 -0.386,-0.385l0 -1.426 -7.61 0 0 1.426c0,0.212 -0.173,0.385 -0.385,0.385l-1.455 0c-0.213,0 -0.386,-0.173 -0.386,-0.385 0,-1.544 0,-3.087 0,-4.631l0 -0.01 0.001 -0.01 0 0 0 -0.009 0 -0.001 0.001 -0.008 0 -0.002c0.029,-0.174 0.106,-0.259 0.264,-0.327l0.005 -0.002 0.003 -0.001 0.007 -0.002 0.002 0 0.006 -0.002 0.003 -0.001 0.007 -0.001 0.002 -0.001 0.007 -0.001 0.002 -0.001 0.008 -0.001 0.001 0 0.009 -0.002 0.001 0 0.008 -0.001 0.001 0 0.009 -0.001 0.001 0 0.008 -0.001 0.001 0 0.009 -0.001 -1.208 0c-0.196,0 -0.357,-0.16 -0.357,-0.357l0 -0.679c0,-0.197 0.161,-0.357 0.357,-0.357l1.29 0c0.406,0 0.357,0.423 0.357,0.696l0.856 -2.716c0.112,-0.353 0.442,-0.679 0.791,-0.679l7.239 0c0.35,0 0.679,0.325 0.791,0.679l0.814 2.58c0,-0.249 0.005,-0.56 0.356,-0.56l1.291 0c0.196,0 0.356,0.16 0.356,0.357l0 0.679c0,0.197 -0.16,0.357 -0.356,0.357l-1.228 0zm-2.553 0.934l0.674 0 0.679 0c0.305,0 0.553,0.248 0.553,0.553l0 0c0,0.304 -0.248,0.553 -0.553,0.553l-0.679 0 -0.674 0c-0.304,0 -0.553,-0.249 -0.553,-0.553l0 0c0,-0.305 0.249,-0.553 0.553,-0.553zm-6.178 0c0.304,0 0.553,0.248 0.553,0.553l0 0c0,0.304 -0.249,0.553 -0.553,0.553l-1.353 0c-0.304,0 -0.553,-0.249 -0.553,-0.553l0 0c0,-0.305 0.249,-0.553 0.553,-0.553l1.353 0zm3.113 8.301c4.752,0 8.578,-3.973 8.51,-8.708 -0.046,-4.606 -3.942,-8.32 -8.51,-8.32 -4.702,0 -8.514,3.811 -8.514,8.513 0,4.703 3.812,8.515 8.514,8.515z"/>
  <rect class="fil3" x="521.212" y="444.475" width="151.181" height="37.795"/>
  <rect class="fil3" x="517.488" y="385.54" width="162.726" height="162.726"/>
 </g>
</svg>
