<svg width="120" height="40" viewBox="0 0 120 40" fill="none" xmlns="http://www.w3.org/2000/svg">
<path d="M13.1464 0.749477L7.60709 3.02303C7.46179 3.07957 7.33733 3.17931 7.2505 3.30881C7.16367 3.4383 7.11864 3.59131 7.1215 3.7472V9.95175L11.5044 8.19185C12.1881 7.9308 12.7747 7.46532 13.1843 6.85883C13.5939 6.25233 13.8066 5.53431 13.7934 4.80257V1.19015C13.7997 1.1109 13.785 1.03138 13.7507 0.959665C13.7163 0.88795 13.6637 0.826597 13.5979 0.781838C13.5322 0.73708 13.4558 0.710511 13.3765 0.704827C13.2972 0.699144 13.2178 0.714546 13.1464 0.749477Z" fill="#7DDF20"/>
<path d="M0.392286 13.2134V16.555C0.392286 21.1091 3.69174 24.4071 8.25147 24.4071H13.1901C13.2709 24.4099 13.3513 24.396 13.4264 24.3663C13.5016 24.3367 13.5698 24.2919 13.6269 24.2348C13.684 24.1777 13.7288 24.1095 13.7584 24.0343C13.7881 23.9592 13.802 23.8788 13.7992 23.798V18.3121C13.8019 18.2313 13.7881 18.1508 13.7584 18.0756C13.7288 18.0004 13.6841 17.932 13.627 17.8748C13.5699 17.8176 13.5017 17.7727 13.4265 17.7429C13.3514 17.7131 13.2709 17.699 13.1901 17.7016H8.13919C8.00425 17.7065 7.86976 17.6835 7.74409 17.6341C7.61842 17.5847 7.50428 17.51 7.4088 17.4145C7.31332 17.319 7.23855 17.2049 7.18916 17.0792C7.13976 16.9535 7.1168 16.819 7.12171 16.6841V9.94763L0.880675 12.4878C0.734034 12.5431 0.608234 12.6427 0.520722 12.7727C0.433209 12.9027 0.388323 13.0567 0.392286 13.2134Z" fill="white"/>
<path d="M40.8246 6.21594C36.6045 6.21594 33.3542 9.49575 33.3542 13.6302C33.3542 17.7647 36.6045 21.0431 40.8246 21.0431C45.0447 21.0431 48.2951 17.7647 48.2951 13.6302C48.2951 9.49575 45.0447 6.21594 40.8246 6.21594ZM40.8246 18.1352C38.2872 18.1352 36.5189 16.1704 36.5189 13.6302C36.5189 11.09 38.2872 9.12524 40.8246 9.12524C43.334 9.12524 45.1009 11.09 45.1009 13.6302C45.1009 16.1704 43.334 18.1352 40.8246 18.1352Z" fill="white"/>
<path d="M63.2643 16.9943L60.9262 15.7396C60.8988 15.7235 60.8682 15.7136 60.8365 15.7107C60.8048 15.7078 60.7729 15.712 60.743 15.7228C60.7131 15.7337 60.686 15.751 60.6636 15.7736C60.6411 15.7961 60.624 15.8233 60.6133 15.8533C60.2555 16.5477 59.7117 17.129 59.0425 17.532C58.3733 17.935 57.6051 18.1438 56.824 18.1352C54.2852 18.1352 52.4888 16.1704 52.4888 13.6302C52.4888 11.09 54.2852 9.12524 56.824 9.12524C57.6052 9.11554 58.3736 9.32381 59.043 9.72666C59.7123 10.1295 60.2561 10.711 60.6133 11.4058C60.6237 11.4359 60.6408 11.4633 60.6632 11.486C60.6856 11.5087 60.7128 11.5261 60.7427 11.537C60.7727 11.5479 60.8047 11.552 60.8365 11.5489C60.8682 11.5459 60.8989 11.5358 60.9262 11.5195L63.2643 10.2648C63.2928 10.2523 63.318 10.2335 63.3383 10.21C63.3586 10.1865 63.3734 10.1587 63.3816 10.1287C63.3898 10.0987 63.3912 10.0673 63.3857 10.0367C63.3802 10.0061 63.368 9.97714 63.3499 9.95186C62.0953 7.66989 59.701 6.21594 56.8212 6.21594C52.5436 6.21594 49.2932 9.41014 49.2932 13.6302C49.2932 17.8504 52.5436 21.0431 56.8212 21.0431C59.701 21.0431 62.1248 19.5892 63.3794 17.2792C63.4011 17.226 63.4012 17.1665 63.3797 17.1133C63.3582 17.0601 63.3168 17.0174 63.2643 16.9943Z" fill="white"/>
<path d="M32.9838 17.9065H25.686V6.72961C25.6818 6.67034 25.6563 6.61459 25.6143 6.57257C25.5723 6.53056 25.5165 6.50509 25.4572 6.50085H22.7767C22.7176 6.50513 22.662 6.53064 22.6202 6.57268C22.5784 6.61473 22.5533 6.67047 22.5493 6.72961V18.1353C22.5493 19.7604 23.5472 20.7583 25.1724 20.7583H32.9838C33.043 20.7543 33.0988 20.7289 33.1406 20.6868C33.1825 20.6447 33.2076 20.5888 33.2112 20.5295V18.1353C33.2076 18.076 33.1825 18.0201 33.1406 17.978C33.0988 17.9359 33.043 17.9105 32.9838 17.9065Z" fill="white"/>
<path d="M103.982 17.9063H96.5004L103.868 9.15315C103.943 9.06549 103.983 8.95385 103.982 8.83878V6.73364C103.978 6.67427 103.953 6.61835 103.911 6.57627C103.869 6.5342 103.813 6.50883 103.753 6.50488H92.8066C92.7472 6.50883 92.6913 6.5342 92.6492 6.57627C92.6072 6.61835 92.5818 6.67427 92.5779 6.73364V9.12929C92.5818 9.18852 92.6073 9.24426 92.6494 9.28611C92.6915 9.32795 92.7474 9.35303 92.8066 9.35665H99.9262L92.5779 18.1393C92.5039 18.2268 92.4636 18.3377 92.4642 18.4523V20.5293C92.4678 20.5886 92.4929 20.6445 92.5347 20.6866C92.5766 20.7287 92.6323 20.7541 92.6915 20.7581H103.984C104.043 20.7541 104.098 20.7287 104.14 20.6866C104.182 20.6445 104.207 20.5886 104.211 20.5293V18.1351C104.207 18.0756 104.182 18.0195 104.14 17.9774C104.098 17.9352 104.042 17.91 103.982 17.9063Z" fill="white"/>
<path d="M90.1248 1.39764H87.4443C87.3853 1.40159 87.3297 1.42681 87.2879 1.46862C87.2461 1.51043 87.2209 1.566 87.2169 1.625V4.36308C87.2209 4.42208 87.2461 4.47765 87.2879 4.51946C87.3297 4.56127 87.3853 4.58649 87.4443 4.59044H88.4702C88.7195 4.59843 88.9678 4.55522 89.1998 4.46347C89.4317 4.37172 89.6424 4.23339 89.8188 4.05701C89.9951 3.88063 90.1335 3.66996 90.2252 3.438C90.317 3.20605 90.3602 2.95775 90.3522 2.70844V1.625C90.3483 1.566 90.323 1.51043 90.2812 1.46862C90.2394 1.42681 90.1838 1.40159 90.1248 1.39764Z" fill="white"/>
<path d="M119.379 6.50084H116.699C116.64 6.50511 116.584 6.53062 116.542 6.57267C116.5 6.61471 116.475 6.67045 116.471 6.7296V8.42353C115.674 7.27413 113.972 6.21594 111.909 6.21594C108.003 6.21594 105.032 9.55189 105.032 13.6302C105.032 17.7086 107.997 21.0431 111.909 21.0431C113.972 21.0431 115.674 19.9864 116.471 18.837V20.5295C116.475 20.5887 116.5 20.6446 116.542 20.6867C116.584 20.7288 116.639 20.7543 116.699 20.7582H119.379C119.439 20.7543 119.495 20.7289 119.537 20.6869C119.579 20.6448 119.604 20.5889 119.608 20.5295V6.7296C119.604 6.67033 119.578 6.61457 119.536 6.57256C119.494 6.53054 119.438 6.50508 119.379 6.50084ZM112.479 18.1914C109.971 18.1914 108.23 16.1957 108.23 13.6302C108.23 11.0648 109.971 9.06771 112.479 9.06771C114.986 9.06771 116.728 11.0634 116.728 13.6302C116.728 16.1971 114.988 18.1914 112.479 18.1914Z" fill="white"/>
<path d="M78.5251 6.50084H75.8445C75.7854 6.50511 75.7298 6.53062 75.688 6.57267C75.6463 6.61471 75.6211 6.67045 75.6172 6.7296V8.42353C74.8186 7.27413 73.1163 6.21594 71.0546 6.21594C67.1475 6.21594 64.1779 9.55189 64.1779 13.6302C64.1779 17.7086 67.1433 21.0431 71.0546 21.0431C73.1163 21.0431 74.8186 19.9864 75.6172 18.837V20.5295C75.6208 20.5887 75.6459 20.6446 75.6877 20.6867C75.7296 20.7288 75.7853 20.7543 75.8445 20.7582H78.5251C78.5843 20.7543 78.6401 20.7288 78.6819 20.6867C78.7238 20.6446 78.7488 20.5887 78.7524 20.5295V6.7296C78.7485 6.67045 78.7233 6.61471 78.6816 6.57267C78.6398 6.53062 78.5842 6.50511 78.5251 6.50084ZM71.6244 18.1914C69.1151 18.1914 67.3763 16.1957 67.3763 13.6302C67.3763 11.0648 69.1151 9.06771 71.6244 9.06771C74.1338 9.06771 75.8726 11.0634 75.8726 13.6302C75.8726 16.1971 74.1282 18.1914 71.6188 18.1914H71.6244Z" fill="white"/>
<path d="M90.1248 6.50085H87.4457C87.3194 6.50085 87.2169 6.60327 87.2169 6.72961V20.5281C87.2169 20.6544 87.3194 20.7569 87.4457 20.7569H90.1248C90.2512 20.7569 90.3536 20.6544 90.3536 20.5281V6.72961C90.3536 6.60327 90.2512 6.50085 90.1248 6.50085Z" fill="white"/>
<path d="M84.3352 1.39764H81.6561C81.5297 1.39764 81.4273 1.50006 81.4273 1.6264V20.5292C81.4273 20.6555 81.5297 20.7579 81.6561 20.7579H84.3352C84.4615 20.7579 84.5639 20.6555 84.5639 20.5292V1.6264C84.5639 1.50006 84.4615 1.39764 84.3352 1.39764Z" fill="white"/>
<path d="M62.816 28.0074H66.356C66.94 28.0074 67.444 28.1194 67.868 28.3434C68.3 28.5674 68.628 28.8794 68.852 29.2794C69.076 29.6794 69.188 30.1354 69.188 30.6474C69.188 31.0554 69.096 31.4074 68.912 31.7034C68.728 31.9914 68.468 32.2234 68.132 32.3994C68.404 32.5914 68.624 32.8314 68.792 33.1194C68.96 33.4074 69.06 33.7314 69.092 34.0914L69.32 36.4074H67.52L67.292 34.3314C67.26 34.0434 67.148 33.8114 66.956 33.6354C66.772 33.4514 66.54 33.3594 66.26 33.3594H64.628V36.4074H62.816V28.0074ZM66.248 31.8114C66.648 31.8114 66.948 31.6994 67.148 31.4754C67.348 31.2514 67.448 30.9754 67.448 30.6474C67.448 30.3194 67.348 30.0474 67.148 29.8314C66.948 29.6154 66.648 29.5074 66.248 29.5074H64.628V31.8114H66.248ZM73.1552 36.5034C72.4992 36.5034 71.9352 36.3554 71.4632 36.0594C70.9992 35.7554 70.6472 35.3634 70.4072 34.8834C70.1672 34.4034 70.0472 33.8994 70.0472 33.3714C70.0472 32.8354 70.1552 32.3314 70.3712 31.8594C70.5952 31.3874 70.9312 31.0034 71.3792 30.7074C71.8352 30.4114 72.3872 30.2634 73.0352 30.2634C73.7072 30.2634 74.2672 30.4074 74.7152 30.6954C75.1632 30.9834 75.4912 31.3514 75.6992 31.7994C75.9152 32.2474 76.0232 32.7194 76.0232 33.2154C76.0232 33.3994 76.0152 33.5794 75.9992 33.7554H71.6552C71.7192 34.1874 71.8792 34.5274 72.1352 34.7754C72.3992 35.0154 72.7392 35.1354 73.1552 35.1354C73.4912 35.1354 73.7672 35.0714 73.9832 34.9434C74.1992 34.8074 74.3392 34.6114 74.4032 34.3554H76.0352C75.9152 35.0034 75.5912 35.5234 75.0632 35.9154C74.5352 36.3074 73.8992 36.5034 73.1552 36.5034ZM74.3552 32.6994C74.3312 32.3474 74.2032 32.0594 73.9712 31.8354C73.7392 31.6034 73.4272 31.4874 73.0352 31.4874C72.6512 31.4874 72.3472 31.5874 72.1232 31.7874C71.8992 31.9794 71.7512 32.2834 71.6792 32.6994H74.3552ZM77.0863 30.3594H78.7543V31.1994C78.9223 30.9034 79.1663 30.6754 79.4863 30.5154C79.8143 30.3474 80.1863 30.2634 80.6023 30.2634C81.0503 30.2634 81.4423 30.3634 81.7783 30.5634C82.1223 30.7634 82.3863 31.0434 82.5703 31.4034C82.7543 31.7634 82.8463 32.1754 82.8463 32.6394V36.4074H81.1663V33.0114C81.1663 32.6434 81.0583 32.3434 80.8423 32.1114C80.6263 31.8714 80.3463 31.7514 80.0023 31.7514C79.6343 31.7514 79.3343 31.8794 79.1023 32.1354C78.8703 32.3834 78.7543 32.7034 78.7543 33.0954V36.4074H77.0863V30.3594ZM86.3273 28.5714V30.3594H87.9473V31.7514H86.3273V34.1394C86.3273 34.7154 86.6073 35.0034 87.1673 35.0034H87.9473V36.4074H86.9513C86.2473 36.4074 85.6873 36.2154 85.2713 35.8314C84.8553 35.4474 84.6473 34.9074 84.6473 34.2114V31.7514H83.4953V30.3594H84.6473V28.5714H86.3273ZM93.1815 36.5034C92.7975 36.5034 92.4535 36.4274 92.1495 36.2754C91.8535 36.1154 91.6215 35.8994 91.4535 35.6274C91.2855 35.3474 91.2015 35.0354 91.2015 34.6914C91.2015 34.0994 91.4015 33.6354 91.8015 33.2994C92.2095 32.9554 92.7495 32.7834 93.4215 32.7834H94.4295C94.5735 32.7834 94.6855 32.7434 94.7655 32.6634C94.8455 32.5754 94.8855 32.4674 94.8855 32.3394C94.8855 32.0834 94.7895 31.8794 94.5975 31.7274C94.4135 31.5674 94.1535 31.4874 93.8175 31.4874C93.4655 31.4874 93.1895 31.5794 92.9895 31.7634C92.7975 31.9474 92.6975 32.1754 92.6895 32.4474H91.2015C91.2255 32.0394 91.3455 31.6714 91.5615 31.3434C91.7855 31.0074 92.0975 30.7434 92.4975 30.5514C92.8975 30.3594 93.3655 30.2634 93.9015 30.2634C94.4135 30.2634 94.8695 30.3594 95.2695 30.5514C95.6695 30.7354 95.9815 30.9994 96.2055 31.3434C96.4375 31.6794 96.5535 32.0714 96.5535 32.5194V36.4074H94.8855V35.5674C94.7815 35.8474 94.5735 36.0754 94.2615 36.2514C93.9575 36.4194 93.5975 36.5034 93.1815 36.5034ZM92.8095 34.6194C92.8095 34.8194 92.8855 34.9834 93.0375 35.1114C93.1895 35.2314 93.3815 35.2914 93.6135 35.2914C94.0055 35.2914 94.3135 35.1634 94.5375 34.9074C94.7695 34.6434 94.8855 34.3154 94.8855 33.9234V33.8394H93.6735C93.4175 33.8394 93.2095 33.9114 93.0495 34.0554C92.8895 34.1994 92.8095 34.3874 92.8095 34.6194ZM104.355 36.5034C103.571 36.5034 102.859 36.3394 102.219 36.0114C101.579 35.6834 101.071 35.1954 100.695 34.5474C100.319 33.8994 100.131 33.1194 100.131 32.2074C100.131 31.2954 100.319 30.5154 100.695 29.8674C101.079 29.2194 101.591 28.7314 102.231 28.4034C102.879 28.0754 103.587 27.9114 104.355 27.9114C105.051 27.9114 105.679 28.0354 106.239 28.2834C106.799 28.5314 107.255 28.8834 107.607 29.3394C107.959 29.7954 108.171 30.3234 108.243 30.9234H106.347C106.291 30.4834 106.075 30.1314 105.699 29.8674C105.331 29.5954 104.879 29.4594 104.343 29.4594C103.887 29.4594 103.479 29.5674 103.119 29.7834C102.759 29.9914 102.475 30.3034 102.267 30.7194C102.059 31.1274 101.955 31.6234 101.955 32.2074C101.955 32.7914 102.059 33.2914 102.267 33.7074C102.475 34.1154 102.759 34.4234 103.119 34.6314C103.479 34.8394 103.887 34.9434 104.343 34.9434C104.879 34.9434 105.335 34.8114 105.711 34.5474C106.095 34.2754 106.323 33.9234 106.395 33.4914H108.207C108.151 34.0834 107.951 34.6074 107.607 35.0634C107.271 35.5194 106.819 35.8754 106.251 36.1314C105.691 36.3794 105.059 36.5034 104.355 36.5034ZM110.9 36.5034C110.516 36.5034 110.172 36.4274 109.868 36.2754C109.572 36.1154 109.34 35.8994 109.172 35.6274C109.004 35.3474 108.92 35.0354 108.92 34.6914C108.92 34.0994 109.12 33.6354 109.52 33.2994C109.928 32.9554 110.468 32.7834 111.14 32.7834H112.148C112.292 32.7834 112.404 32.7434 112.484 32.6634C112.564 32.5754 112.604 32.4674 112.604 32.3394C112.604 32.0834 112.508 31.8794 112.316 31.7274C112.132 31.5674 111.872 31.4874 111.536 31.4874C111.184 31.4874 110.908 31.5794 110.708 31.7634C110.516 31.9474 110.416 32.1754 110.408 32.4474H108.92C108.944 32.0394 109.064 31.6714 109.28 31.3434C109.504 31.0074 109.816 30.7434 110.216 30.5514C110.616 30.3594 111.084 30.2634 111.62 30.2634C112.132 30.2634 112.588 30.3594 112.988 30.5514C113.388 30.7354 113.7 30.9994 113.924 31.3434C114.156 31.6794 114.272 32.0714 114.272 32.5194V36.4074H112.604V35.5674C112.5 35.8474 112.292 36.0754 111.98 36.2514C111.676 36.4194 111.316 36.5034 110.9 36.5034ZM110.528 34.6194C110.528 34.8194 110.604 34.9834 110.756 35.1114C110.908 35.2314 111.1 35.2914 111.332 35.2914C111.724 35.2914 112.032 35.1634 112.256 34.9074C112.488 34.6434 112.604 34.3154 112.604 33.9234V33.8394H111.392C111.136 33.8394 110.928 33.9114 110.768 34.0554C110.608 34.1994 110.528 34.3874 110.528 34.6194ZM118.439 31.7514C118.039 31.7514 117.739 31.9034 117.539 32.2074C117.339 32.5114 117.239 32.9314 117.239 33.4674V36.4074H115.571V30.3594H117.239V31.3674C117.399 30.9994 117.595 30.7394 117.827 30.5874C118.067 30.4354 118.379 30.3594 118.763 30.3594H119.435V31.7514H118.439Z" fill="white"/>
</svg>
