<?xml version="1.0" encoding="UTF-8"?>
<!DOCTYPE svg PUBLIC "-//W3C//DTD SVG 1.1//EN" "http://www.w3.org/Graphics/SVG/1.1/DTD/svg11.dtd">
<!-- Creator: CorelDRAW 2021 (64-Bit) -->
<svg xmlns="http://www.w3.org/2000/svg" xml:space="preserve" width="72px" height="72px" version="1.1" style="shape-rendering:geometricPrecision; text-rendering:geometricPrecision; image-rendering:optimizeQuality; fill-rule:evenodd; clip-rule:evenodd"
viewBox="0 0 14.577 14.577"
 xmlns:xlink="http://www.w3.org/1999/xlink"
 xmlns:xodm="http://www.corel.com/coreldraw/odm/2003">
 <defs>
  <style type="text/css">
   <![CDATA[
    .str1 {stroke:#CB032C;stroke-width:0.059;stroke-miterlimit:22.9256}
    .str0 {stroke:black;stroke-width:0.154;stroke-linecap:round;stroke-linejoin:round;stroke-miterlimit:22.9256}
    .fil1 {fill:none}
    .fil2 {fill:#CB032C}
    .fil0 {fill:#FF294D}
   ]]>
  </style>
   <clipPath id="id0">
    <path d="M7.288 14.577c-4.025,0 -7.288,-3.263 -7.288,-7.289 0,-4.025 3.263,-7.288 7.288,-7.288l0 1.062c-3.439,0 -6.226,2.787 -6.226,6.226 0,3.439 2.787,6.227 6.226,6.227l0 1.062zm0 -1.821c-3.019,0 -5.467,-2.448 -5.467,-5.468 0,-3.019 2.448,-5.467 5.467,-5.467l0 10.935z"/>
   </clipPath>
   <clipPath id="id1">
    <path d="M7.288 14.577c4.026,0 7.289,-3.263 7.289,-7.289 0,-4.025 -3.263,-7.288 -7.289,-7.288l0 1.062c3.439,0 6.227,2.787 6.227,6.226 0,3.439 -2.788,6.227 -6.227,6.227l0 1.062zm0 -1.821c3.02,0 5.468,-2.448 5.468,-5.468 0,-3.019 -2.448,-5.467 -5.468,-5.467l0 10.935z"/>
   </clipPath>
   <clipPath id="id2">
    <path d="M7.288 14.577c4.026,0 7.289,-3.263 7.289,-7.289 0,-4.025 -3.263,-7.288 -7.289,-7.288l0 1.062c3.439,0 6.227,2.787 6.227,6.226 0,3.439 -2.788,6.227 -6.227,6.227l0 1.062zm0 -1.821c3.02,0 5.468,-2.448 5.468,-5.468 0,-3.019 -2.448,-5.467 -5.468,-5.467l0 10.935z"/>
   </clipPath>
 </defs>
 <g id="Capa_x0020_1">
  <metadata id="CorelCorpID_0Corel-Layer"/>
  <path class="fil0" d="M7.288 14.577c-4.025,0 -7.288,-3.263 -7.288,-7.289 0,-4.025 3.263,-7.288 7.288,-7.288l0 1.062c-3.439,0 -6.226,2.787 -6.226,6.226 0,3.439 2.787,6.227 6.226,6.227l0 1.062zm0 -1.821c-3.019,0 -5.467,-2.448 -5.467,-5.468 0,-3.019 2.448,-5.467 5.467,-5.467l0 10.935z"/>
  <g style="clip-path:url(#id0)">
   <g id="_2179245559024">
    <rect class="fil1 str0" x="-2.522" y="0.756" width="1.292" height="0.978"/>
   </g>
  </g>
  <path class="fil1" d="M7.288 14.577c-4.025,0 -7.288,-3.263 -7.288,-7.289 0,-4.025 3.263,-7.288 7.288,-7.288l0 1.062c-3.439,0 -6.226,2.787 -6.226,6.226 0,3.439 2.787,6.227 6.226,6.227l0 1.062zm0 -1.821c-3.019,0 -5.467,-2.448 -5.467,-5.468 0,-3.019 2.448,-5.467 5.467,-5.467l0 10.935z"/>
  <path class="fil2" d="M7.288 14.577c4.026,0 7.289,-3.263 7.289,-7.289 0,-4.025 -3.263,-7.288 -7.289,-7.288l0 1.062c3.439,0 6.227,2.787 6.227,6.226 0,3.439 -2.788,6.227 -6.227,6.227l0 1.062zm0 -1.821c3.02,0 5.468,-2.448 5.468,-5.468 0,-3.019 -2.448,-5.467 -5.468,-5.467l0 10.935z"/>
  <g style="clip-path:url(#id1)">
  </g>
  <path id="_1" class="fil1" d="M7.288 14.577c4.026,0 7.289,-3.263 7.289,-7.289 0,-4.025 -3.263,-7.288 -7.289,-7.288l0 1.062c3.439,0 6.227,2.787 6.227,6.226 0,3.439 -2.788,6.227 -6.227,6.227l0 1.062zm0 -1.821c3.02,0 5.468,-2.448 5.468,-5.468 0,-3.019 -2.448,-5.467 -5.468,-5.467l0 10.935z"/>
  <g style="clip-path:url(#id2)">
   <path id="_2" class="fil1 str1" d="M7.288 0l7.289 14.577m0 -14.577l-7.289 14.577"/>
  </g>
 </g>
</svg>
