<?xml version="1.0" encoding="UTF-8"?>
<!DOCTYPE svg PUBLIC "-//W3C//DTD SVG 1.1//EN" "http://www.w3.org/Graphics/SVG/1.1/DTD/svg11.dtd">
<!-- Creator: CorelDRAW 2021 (64-Bit) -->
<svg xmlns="http://www.w3.org/2000/svg" xml:space="preserve" width="1556px" height="424px" version="1.1" style="shape-rendering:geometricPrecision; text-rendering:geometricPrecision; image-rendering:optimizeQuality; fill-rule:evenodd; clip-rule:evenodd"
viewBox="0 0 1639.201 446.271"
 xmlns:xlink="http://www.w3.org/1999/xlink"
 xmlns:xodm="http://www.corel.com/coreldraw/odm/2003">
 <defs>
  <style type="text/css">
   <![CDATA[
    .str0 {stroke:black;stroke-width:0.303;stroke-miterlimit:22.9256}
    .fil1 {fill:black}
    .fil0 {fill:#CC022B;fill-rule:nonzero}
   ]]>
  </style>
 </defs>
 <g id="Capa_x0020_1">
  <metadata id="CorelCorpID_0Corel-Layer"/>
  <path class="fil0" d="M20.408 190.689l0 47.103c32.688,-18.497 105.783,-37.548 105.783,21.619l0 19.689c-15.056,-16.985 -33.973,-23.55 -55.207,-23.55 -94.482,0 -94.55,128.949 -0.772,128.949 22.394,0 41.695,-9.266 55.979,-27.027l0 23.166 51.349 0 0 -123.156c0,-89.433 -95.367,-85.46 -157.132,-66.793zm65.633 160.609c-47.508,0 -47.745,-62.544 0.387,-62.544 12.74,0 26.251,4.633 39.763,22.005l0 18.53c-13.512,16.988 -27.023,22.009 -40.15,22.009zm123.64 29.34l51.345 0 0 -270.25 -51.345 0 0 270.25zm226.719 -196.896l0 27.796c-15.829,-20.461 -37.835,-31.657 -63.701,-31.657 -117.623,0 -117.642,204.618 0,204.618 25.866,0 47.872,-10.811 63.701,-31.272l0 93.044 51.733 0 0 -262.529 -51.733 0zm-47.488 157.517c-71.413,0 -71.904,-118.138 -0.773,-118.138 19.693,0 36.293,11.583 48.261,28.568l0 60.615c-11.583,16.985 -27.412,28.955 -47.488,28.955zm264.556 -157.517l0 125.858c-28.869,35.283 -79.532,41.121 -79.532,-8.494l0 -117.364 -51.734 0 0 125.473c0,79.898 86.357,104.351 131.266,34.746l0 36.677 51.346 0 0 -196.896 -51.346 0zm90.82 196.896l51.35 0 0 -196.896 -51.35 0 0 196.896zm88.895 0l51.346 0c0,-102.064 0,-204.124 0,-306.188 -18.129,18.892 -35.421,39.389 -51.346,62.516l0 243.672zm165.72 -200.757c-12.74,0 -39.379,0.773 -72.583,10.808l0 47.103c29.343,-16.603 49.033,-18.532 60.228,-18.532 31.272,0 45.556,15.828 45.556,40.151l0 19.689c-15.056,-16.985 -33.973,-23.55 -55.207,-23.55 -94.483,0 -94.55,128.949 -0.772,128.949 22.393,0 41.695,-9.266 55.979,-27.027l0 23.166 51.349 0 0 -123.156c0,-49.805 -32.044,-77.601 -84.55,-77.601zm-6.95 171.417c-47.507,0 -47.744,-62.544 0.388,-62.544 12.739,0 26.251,4.633 39.763,22.005l0 18.53c-13.512,16.988 -27.024,22.009 -40.151,22.009zm301.231 -130.109c-18.606,-57.53 -91.09,-52.24 -123.928,-4.246l0 -33.201 -51.734 0 0 196.896 51.734 0 0 -125.088c26.59,-37.668 75.671,-41.929 75.671,6.949l0 118.139 51.733 0 0 -125.861c27.616,-34.328 75.668,-43.047 75.668,7.722l0 118.139 51.737 0 0 -133.582c0,-78.873 -88.526,-90.398 -130.881,-25.867zm346.017 55.982c0,-132.769 -191.489,-126.2 -191.489,1.157 0,66.792 40.538,106.171 110.416,106.171 15.441,0 39.766,-2.317 69.491,-11.195l0 -43.243c-30.497,11.583 -48.645,15.059 -65.245,15.059 -38.994,0 -59.456,-14.671 -64.089,-49.804l140.916 0 0 -18.145zm-46.712 -14.672l-94.204 0c8.898,-61.458 85.598,-63.675 94.204,0z"/>
  <path class="fil1 str0" d="M770.022 105.743c-21.569,-14.285 -37.063,-21.143 -61.462,-28.37 26.445,30.533 47.975,68.493 62.326,95.937 46.868,-75.341 79.621,-115.683 145.46,-172.89 -51.632,18.704 -110.228,61.178 -146.324,105.323z"/>
 </g>
</svg>
